[img]http://a.imageshack.us/img130/664/killersmovieposter.jpg[/img]
[code]

 Killers 2010 720p BRRiP AC3 XViD - IMAGiNE
********************************************************************************************************************

Ripper ...........: IMAGiNE                                          IMDB Rating.......:3.5/10                             
Video Codec.......: XVID                                          Release Date......:15/08/10
Audio Codec.......:AC3                                            Theatre Date......:04/06/10
Audio Bitrate.....:640                                                Runtime.......:1h 40mn
Subtitles.........:ENGLISH WHEN NEEDED         Language..........:ENGLISH
Resolution...... 1280 x 544                                      IMDb URL..........:http://www.imdb.com/title/tt1103153/


DETAILS:

Video
ID                               : 0
Format                           : MPEG-4 Visual
Format profile                   : Advanced Simple@L5
Format settings, BVOP            : Yes
Format settings, QPel            : No
Format settings, GMC             : No warppoints
Format settings, Matrix          : Default (MPEG)
Muxing mode                      : Packed bitstream
Codec ID                         : XVID
Codec ID/Hint                    : XviD
Duration                         : 1h 40mn
Bit rate                         : 3 207 Kbps
Width                            : 1 280 pixels
Height                           : 544 pixels
Display aspect ratio             : 2.35
Frame rate                       : 23.976 fps
Resolution                       : 24 bits
Colorimetry                      : 4:2:0
Scan type                        : Progressive
Bits/(Pixel*Frame)               : 0.192
Stream size                      : 2.25 GiB (83%)
Writing library                  : XviD 1.2.1 (UTC 2008-12-04)

Audio
ID                               : 1
Format                           : AC-3
Format/Info                      : Audio Coding 3
Codec ID                         : 2000
Duration                         : 1h 40mn
Bit rate mode                    : Constant
Bit rate                         : 640 Kbps
Channel(s)                       : 6 channels
Channel positions                : Front: L C R, Surround: L R, LFE
Sampling rate                    : 48.0 KHz
Stream size                      : 460 MiB (17%)
Alignment                        : Aligned on interleaves
Interleave, duration             : 42 ms (1.00 video frame)
Interleave, preload duration     : 512 ms


SOURCES:

Killers 2010 Bluray 720p DTS x264-CHD ..... Thanks

NOTES:

IMAGiNE bringing you another release.....Killers 2010

Right first off we stripped the DTS audio and converted it AC3 and then remuxed.
The video we just done a small script and added a few filters....white balance,contrast,brightness and sharpen.
Source was already really good anyway so we only did some slight tweaking here and there.

Enjoy 

[/code]
Screens:
[img]http://a.imageshack.us/img245/9452/53353280.png[/img]
[img]http://a.imageshack.us/img807/8835/35891112.png[/img]
[img]http://a.imageshack.us/img188/6602/58788701.png[/img
[img]http://a.imageshack.us/img831/6914/13903832.png[/img]